<mxfile host="app.diagrams.net" agent="Mozilla/5.0 (Windows NT 10.0; Win64; x64) AppleWebKit/537.36 (KHTML, like Gecko) Chrome/128.0.0.0 Safari/537.36" version="24.7.14">
  <diagram name="第 1 页" id="38bmIWLiVgcQbwReOGMh">
    <mxGraphModel dx="719" dy="469" grid="0" gridSize="10" guides="1" tooltips="1" connect="1" arrows="1" fold="1" page="1" pageScale="1" pageWidth="1654" pageHeight="2336" math="0" shadow="0">
      <root>
        <mxCell id="0" />
        <mxCell id="1" parent="0" />
        <mxCell id="LKPQvU0XqsFsYS4dyeuE-3" value="" style="rounded=0;html=1;fillColor=#f5f5f5;fontColor=#333333;strokeColor=#666666;fontFamily=Lucida Console;" parent="1" vertex="1">
          <mxGeometry x="560" y="1120" width="520" height="40" as="geometry" />
        </mxCell>
        <mxCell id="LKPQvU0XqsFsYS4dyeuE-1" value="" style="rounded=0;html=1;fillColor=#dae8fc;strokeColor=#6c8ebf;fontFamily=Lucida Console;" parent="1" vertex="1">
          <mxGeometry x="640" y="1120" width="120" height="40" as="geometry" />
        </mxCell>
        <mxCell id="LKPQvU0XqsFsYS4dyeuE-2" value="" style="rounded=0;html=1;fillColor=#dae8fc;strokeColor=#6c8ebf;fontFamily=Lucida Console;" parent="1" vertex="1">
          <mxGeometry x="840" y="1120" width="120" height="40" as="geometry" />
        </mxCell>
        <mxCell id="LKPQvU0XqsFsYS4dyeuE-6" value="当前位置&lt;div&gt;i&lt;/div&gt;" style="text;html=1;align=center;verticalAlign=middle;resizable=0;points=[];autosize=1;strokeColor=none;fillColor=none;fontFamily=Lucida Console;" parent="1" vertex="1">
          <mxGeometry x="950" y="1080" width="70" height="40" as="geometry" />
        </mxCell>
        <mxCell id="LKPQvU0XqsFsYS4dyeuE-7" value="" style="shape=curlyBracket;html=1;rounded=1;labelPosition=left;verticalLabelPosition=middle;align=right;verticalAlign=middle;direction=south;fontFamily=Lucida Console;" parent="1" vertex="1">
          <mxGeometry x="640" y="1100" width="120" height="20" as="geometry" />
        </mxCell>
        <mxCell id="LKPQvU0XqsFsYS4dyeuE-8" value="" style="shape=curlyBracket;html=1;rounded=1;labelPosition=left;verticalLabelPosition=middle;align=right;verticalAlign=middle;direction=south;fontFamily=Lucida Console;" parent="1" vertex="1">
          <mxGeometry x="840" y="1100" width="120" height="20" as="geometry" />
        </mxCell>
        <mxCell id="LKPQvU0XqsFsYS4dyeuE-9" value="当前前缀长度&lt;div&gt;j&lt;/div&gt;" style="text;html=1;align=center;verticalAlign=middle;resizable=0;points=[];autosize=1;strokeColor=none;fillColor=none;fontFamily=Lucida Console;" parent="1" vertex="1">
          <mxGeometry x="650" y="1060" width="100" height="40" as="geometry" />
        </mxCell>
        <mxCell id="LKPQvU0XqsFsYS4dyeuE-10" value="当前后缀长度&lt;div&gt;j&lt;/div&gt;" style="text;html=1;align=center;verticalAlign=middle;resizable=0;points=[];autosize=1;strokeColor=none;fillColor=none;fontFamily=Lucida Console;" parent="1" vertex="1">
          <mxGeometry x="850" y="1060" width="100" height="40" as="geometry" />
        </mxCell>
        <mxCell id="LKPQvU0XqsFsYS4dyeuE-13" value="1" style="text;html=1;align=center;verticalAlign=middle;resizable=0;points=[];autosize=1;strokeColor=none;fillColor=none;fontFamily=Lucida Console;" parent="1" vertex="1">
          <mxGeometry x="640" y="1160" width="30" height="30" as="geometry" />
        </mxCell>
        <mxCell id="LKPQvU0XqsFsYS4dyeuE-14" value="j" style="text;html=1;align=center;verticalAlign=middle;resizable=0;points=[];autosize=1;strokeColor=none;fillColor=none;fontFamily=Lucida Console;" parent="1" vertex="1">
          <mxGeometry x="725" y="1160" width="30" height="30" as="geometry" />
        </mxCell>
        <mxCell id="LKPQvU0XqsFsYS4dyeuE-15" value="j+1" style="text;html=1;align=center;verticalAlign=middle;resizable=0;points=[];autosize=1;strokeColor=none;fillColor=none;fontFamily=Lucida Console;" parent="1" vertex="1">
          <mxGeometry x="755" y="1160" width="50" height="30" as="geometry" />
        </mxCell>
        <mxCell id="LKPQvU0XqsFsYS4dyeuE-16" value="" style="rounded=0;html=1;fillColor=#d5e8d4;strokeColor=#82b366;fontFamily=Lucida Console;" parent="1" vertex="1">
          <mxGeometry x="760" y="1120" width="40" height="40" as="geometry" />
        </mxCell>
        <mxCell id="LKPQvU0XqsFsYS4dyeuE-17" value="" style="rounded=0;html=1;fillColor=#d5e8d4;strokeColor=#82b366;fontFamily=Lucida Console;" parent="1" vertex="1">
          <mxGeometry x="960" y="1120" width="40" height="40" as="geometry" />
        </mxCell>
        <mxCell id="LKPQvU0XqsFsYS4dyeuE-18" value="如果当前前缀的下一个字符p[j+1]==当前位置p[i]，那么可以扩展前缀" style="text;html=1;align=center;verticalAlign=middle;resizable=0;points=[];autosize=1;strokeColor=none;fillColor=none;fontFamily=Lucida Console;" parent="1" vertex="1">
          <mxGeometry x="635" y="1210" width="410" height="30" as="geometry" />
        </mxCell>
        <mxCell id="swUKTVLusb5L7PW5voq6-1" value="" style="rounded=0;html=1;fillColor=#f5f5f5;fontColor=#333333;strokeColor=#666666;fontFamily=Lucida Console;" vertex="1" parent="1">
          <mxGeometry x="560" y="1350" width="520" height="40" as="geometry" />
        </mxCell>
        <mxCell id="swUKTVLusb5L7PW5voq6-2" value="" style="rounded=0;html=1;fillColor=#dae8fc;strokeColor=#6c8ebf;fontFamily=Lucida Console;" vertex="1" parent="1">
          <mxGeometry x="640" y="1350" width="120" height="40" as="geometry" />
        </mxCell>
        <mxCell id="swUKTVLusb5L7PW5voq6-3" value="" style="rounded=0;html=1;fillColor=#dae8fc;strokeColor=#6c8ebf;fontFamily=Lucida Console;" vertex="1" parent="1">
          <mxGeometry x="840" y="1350" width="120" height="40" as="geometry" />
        </mxCell>
        <mxCell id="swUKTVLusb5L7PW5voq6-4" value="" style="rounded=0;html=1;fillColor=#f8cecc;strokeColor=#b85450;fontFamily=Lucida Console;" vertex="1" parent="1">
          <mxGeometry x="760" y="1350" width="40" height="40" as="geometry" />
        </mxCell>
        <mxCell id="swUKTVLusb5L7PW5voq6-5" value="" style="rounded=0;html=1;fillColor=#f8cecc;strokeColor=#b85450;fontFamily=Lucida Console;" vertex="1" parent="1">
          <mxGeometry x="960" y="1350" width="40" height="40" as="geometry" />
        </mxCell>
        <mxCell id="swUKTVLusb5L7PW5voq6-6" value="当前位置&lt;div&gt;i&lt;/div&gt;" style="text;html=1;align=center;verticalAlign=middle;resizable=0;points=[];autosize=1;strokeColor=none;fillColor=none;fontFamily=Lucida Console;" vertex="1" parent="1">
          <mxGeometry x="950" y="1312" width="70" height="40" as="geometry" />
        </mxCell>
        <mxCell id="swUKTVLusb5L7PW5voq6-18" style="edgeStyle=orthogonalEdgeStyle;rounded=0;orthogonalLoop=1;jettySize=auto;html=1;" edge="1" parent="1" source="swUKTVLusb5L7PW5voq6-8" target="swUKTVLusb5L7PW5voq6-17">
          <mxGeometry relative="1" as="geometry" />
        </mxCell>
        <mxCell id="swUKTVLusb5L7PW5voq6-8" value="j" style="text;html=1;align=center;verticalAlign=middle;resizable=0;points=[];autosize=1;strokeColor=none;fillColor=none;fontFamily=Lucida Console;fontColor=#B3B3B3;" vertex="1" parent="1">
          <mxGeometry x="725" y="1390" width="30" height="30" as="geometry" />
        </mxCell>
        <mxCell id="swUKTVLusb5L7PW5voq6-9" value="j+1" style="text;html=1;align=center;verticalAlign=middle;resizable=0;points=[];autosize=1;strokeColor=none;fillColor=none;fontFamily=Lucida Console;" vertex="1" parent="1">
          <mxGeometry x="755" y="1390" width="50" height="30" as="geometry" />
        </mxCell>
        <mxCell id="swUKTVLusb5L7PW5voq6-10" value="B" style="rounded=0;html=1;fillColor=#e1d5e7;strokeColor=#9673a6;fontFamily=Lucida Console;" vertex="1" parent="1">
          <mxGeometry x="720" y="1350" width="40" height="40" as="geometry" />
        </mxCell>
        <mxCell id="swUKTVLusb5L7PW5voq6-11" value="A" style="rounded=0;html=1;fillColor=#e1d5e7;strokeColor=#9673a6;fontFamily=Lucida Console;" vertex="1" parent="1">
          <mxGeometry x="640" y="1350" width="40" height="40" as="geometry" />
        </mxCell>
        <mxCell id="swUKTVLusb5L7PW5voq6-13" value="" style="shape=curlyBracket;html=1;rounded=1;labelPosition=left;verticalLabelPosition=middle;align=right;verticalAlign=middle;direction=south;fontFamily=Lucida Console;" vertex="1" parent="1">
          <mxGeometry x="640" y="1330" width="120" height="20" as="geometry" />
        </mxCell>
        <mxCell id="swUKTVLusb5L7PW5voq6-14" value="当前前缀" style="text;html=1;align=center;verticalAlign=middle;resizable=0;points=[];autosize=1;strokeColor=none;fillColor=none;fontFamily=Lucida Console;" vertex="1" parent="1">
          <mxGeometry x="667" y="1297" width="66" height="26" as="geometry" />
        </mxCell>
        <mxCell id="swUKTVLusb5L7PW5voq6-16" value="否则通过已知的当前前缀这个子串中的最长公共前后缀next[j]来回退" style="text;html=1;align=center;verticalAlign=middle;resizable=0;points=[];autosize=1;strokeColor=none;fillColor=none;fontFamily=Lucida Console;" vertex="1" parent="1">
          <mxGeometry x="645" y="1262" width="392" height="26" as="geometry" />
        </mxCell>
        <mxCell id="swUKTVLusb5L7PW5voq6-17" value="j" style="text;html=1;align=center;verticalAlign=middle;resizable=0;points=[];autosize=1;strokeColor=none;fillColor=none;fontFamily=Lucida Console;" vertex="1" parent="1">
          <mxGeometry x="645" y="1390" width="30" height="30" as="geometry" />
        </mxCell>
        <mxCell id="swUKTVLusb5L7PW5voq6-19" value="&lt;font color=&quot;#ff0000&quot; style=&quot;font-size: 8px;&quot;&gt;j=next[j]&lt;/font&gt;" style="text;html=1;align=center;verticalAlign=middle;resizable=0;points=[];autosize=1;strokeColor=none;fillColor=none;fontFamily=Lucida Console;" vertex="1" parent="1">
          <mxGeometry x="672" y="1381" width="61" height="26" as="geometry" />
        </mxCell>
        <mxCell id="swUKTVLusb5L7PW5voq6-20" value="A&#39;" style="rounded=0;html=1;fillColor=#e1d5e7;strokeColor=#9673a6;fontFamily=Lucida Console;" vertex="1" parent="1">
          <mxGeometry x="840" y="1350" width="40" height="40" as="geometry" />
        </mxCell>
        <mxCell id="swUKTVLusb5L7PW5voq6-21" value="B&#39;" style="rounded=0;html=1;fillColor=#e1d5e7;strokeColor=#9673a6;fontFamily=Lucida Console;" vertex="1" parent="1">
          <mxGeometry x="920" y="1350" width="40" height="40" as="geometry" />
        </mxCell>
        <mxCell id="swUKTVLusb5L7PW5voq6-22" value="所以当前位置i之前的最长公共前后缀就是A和B&#39;" style="text;html=1;align=center;verticalAlign=middle;resizable=0;points=[];autosize=1;strokeColor=none;fillColor=none;fontFamily=Lucida Console;" vertex="1" parent="1">
          <mxGeometry x="706" y="1438" width="275" height="26" as="geometry" />
        </mxCell>
      </root>
    </mxGraphModel>
  </diagram>
</mxfile>
